<svg width="70" height="28" fill="none" xmlns="http://www.w3.org/2000/svg"><path d="M3.072 22c-.88 0-1.57-.24-2.07-.72-.48-.5-.72-1.19-.72-2.07V3.61c0-.9.24-1.59.72-2.07.48-.48 1.16-.72 2.04-.72.9 0 1.58.24 2.04.72.48.48.72 1.17.72 2.07v13.8h7.32c.76 0 1.34.2 1.74.6.42.38.63.94.63 1.68s-.21 1.31-.63 1.71c-.4.4-.98.6-1.74.6H3.072zm21.723.33c-1.64 0-3.07-.31-4.29-.93a6.804 6.804 0 01-2.85-2.67c-.68-1.16-1.02-2.53-1.02-4.11 0-1.2.19-2.27.57-3.21.38-.96.93-1.77 1.65-2.43a6.97 6.97 0 012.58-1.53c1-.36 2.12-.54 3.36-.54 1.64 0 3.07.31 4.29.93 1.22.62 2.16 1.51 2.82 2.67.68 1.14 1.02 2.51 1.02 4.11 0 1.18-.19 2.25-.57 3.21-.38.96-.93 1.78-1.65 2.46-.7.66-1.56 1.17-2.58 1.53-1 .34-2.11.51-3.33.51zm0-3.93c.54 0 1.02-.13 1.44-.39.42-.28.74-.69.96-1.23.24-.56.36-1.28.36-2.16 0-1.34-.26-2.3-.78-2.88-.52-.6-1.18-.9-1.98-.9-.54 0-1.02.13-1.44.39-.42.26-.75.67-.99 1.23-.24.54-.36 1.26-.36 2.16 0 1.32.26 2.28.78 2.88.52.6 1.19.9 2.01.9zm17.896 9.33c-1.1 0-2.13-.08-3.09-.24-.96-.14-1.79-.35-2.49-.63-.58-.2-.99-.49-1.23-.87s-.35-.78-.33-1.2c.02-.42.13-.8.33-1.14.22-.34.51-.59.87-.75.36-.14.76-.13 1.2.03.88.36 1.68.59 2.4.69.72.12 1.33.18 1.83.18 1.22 0 2.13-.26 2.73-.78.62-.5.93-1.29.93-2.37v-1.89h.24c-.3.84-.91 1.53-1.83 2.07-.92.52-1.92.78-3 .78-1.32 0-2.47-.3-3.45-.9-.98-.62-1.75-1.48-2.31-2.58-.54-1.1-.81-2.39-.81-3.87 0-1.12.16-2.13.48-3.03.32-.9.76-1.67 1.32-2.31.58-.64 1.27-1.13 2.07-1.47.82-.36 1.72-.54 2.7-.54 1.12 0 2.12.26 3 .78.9.52 1.5 1.2 1.8 2.04l-.3 1.23V9.64c0-.86.23-1.52.69-1.98.48-.46 1.14-.69 1.98-.69.84 0 1.48.23 1.92.69.46.46.69 1.12.69 1.98v10.38c0 2.56-.72 4.48-2.16 5.76-1.44 1.3-3.5 1.95-6.18 1.95zm.21-10.05c.6 0 1.11-.13 1.53-.39.42-.28.75-.67.99-1.17.24-.52.36-1.14.36-1.86 0-1.08-.26-1.92-.78-2.52-.52-.6-1.22-.9-2.1-.9-.56 0-1.06.14-1.5.42-.44.26-.78.65-1.02 1.17-.22.5-.33 1.11-.33 1.83 0 1.08.26 1.92.78 2.52.52.6 1.21.9 2.07.9zm18.72 4.65c-1.64 0-3.07-.31-4.29-.93a6.804 6.804 0 01-2.85-2.67c-.68-1.16-1.02-2.53-1.02-4.11 0-1.2.19-2.27.57-3.21.38-.96.93-1.77 1.65-2.43a6.97 6.97 0 012.58-1.53c1-.36 2.12-.54 3.36-.54 1.64 0 3.07.31 4.29.93 1.22.62 2.16 1.51 2.82 2.67.68 1.14 1.02 2.51 1.02 4.11 0 1.18-.19 2.25-.57 3.21-.38.96-.93 1.78-1.65 2.46-.7.66-1.56 1.17-2.58 1.53-1 .34-2.11.51-3.33.51zm0-3.93c.54 0 1.02-.13 1.44-.39.42-.28.74-.69.96-1.23.24-.56.36-1.28.36-2.16 0-1.34-.26-2.3-.78-2.88-.52-.6-1.18-.9-1.98-.9-.54 0-1.02.13-1.44.39-.42.26-.75.67-.99 1.23-.24.54-.36 1.26-.36 2.16 0 1.32.26 2.28.78 2.88.52.6 1.19.9 2.01.9z" fill="#fff"/></svg>