<svg width="70" height="28" viewBox="0 0 70 28" fill="none" xmlns="http://www.w3.org/2000/svg">
<path d="M3.0723 22C2.1923 22 1.5023 21.76 1.0023 21.28C0.522305 20.78 0.282305 20.09 0.282305 19.21V3.61C0.282305 2.71 0.522305 2.02 1.0023 1.54C1.4823 1.06 2.1623 0.819999 3.0423 0.819999C3.9423 0.819999 4.6223 1.06 5.0823 1.54C5.5623 2.02 5.80231 2.71 5.80231 3.61V17.41H13.1223C13.8823 17.41 14.4623 17.61 14.8623 18.01C15.2823 18.39 15.4923 18.95 15.4923 19.69C15.4923 20.43 15.2823 21 14.8623 21.4C14.4623 21.8 13.8823 22 13.1223 22H3.0723ZM24.7946 22.33C23.1546 22.33 21.7246 22.02 20.5046 21.4C19.2846 20.78 18.3346 19.89 17.6546 18.73C16.9746 17.57 16.6346 16.2 16.6346 14.62C16.6346 13.42 16.8246 12.35 17.2046 11.41C17.5846 10.45 18.1346 9.64 18.8546 8.98C19.5746 8.3 20.4346 7.79 21.4346 7.45C22.4346 7.09 23.5546 6.91 24.7946 6.91C26.4346 6.91 27.8646 7.22 29.0846 7.84C30.3046 8.46 31.2446 9.35 31.9046 10.51C32.5846 11.65 32.9246 13.02 32.9246 14.62C32.9246 15.8 32.7346 16.87 32.3546 17.83C31.9746 18.79 31.4246 19.61 30.7046 20.29C30.0046 20.95 29.1446 21.46 28.1246 21.82C27.1246 22.16 26.0146 22.33 24.7946 22.33ZM24.7946 18.4C25.3346 18.4 25.8146 18.27 26.2346 18.01C26.6546 17.73 26.9746 17.32 27.1946 16.78C27.4346 16.22 27.5546 15.5 27.5546 14.62C27.5546 13.28 27.2946 12.32 26.7746 11.74C26.2546 11.14 25.5946 10.84 24.7946 10.84C24.2546 10.84 23.7746 10.97 23.3546 11.23C22.9346 11.49 22.6046 11.9 22.3646 12.46C22.1246 13 22.0046 13.72 22.0046 14.62C22.0046 15.94 22.2646 16.9 22.7846 17.5C23.3046 18.1 23.9746 18.4 24.7946 18.4ZM42.6915 27.73C41.5915 27.73 40.5615 27.65 39.6015 27.49C38.6415 27.35 37.8115 27.14 37.1115 26.86C36.5315 26.66 36.1215 26.37 35.8815 25.99C35.6415 25.61 35.5315 25.21 35.5515 24.79C35.5715 24.37 35.6815 23.99 35.8815 23.65C36.1015 23.31 36.3915 23.06 36.7515 22.9C37.1115 22.76 37.5115 22.77 37.9515 22.93C38.8315 23.29 39.6315 23.52 40.3515 23.62C41.0715 23.74 41.6815 23.8 42.1815 23.8C43.4015 23.8 44.3115 23.54 44.9115 23.02C45.5315 22.52 45.8415 21.73 45.8415 20.65V18.76H46.0815C45.7815 19.6 45.1715 20.29 44.2515 20.83C43.3315 21.35 42.3315 21.61 41.2515 21.61C39.9315 21.61 38.7815 21.31 37.8015 20.71C36.8215 20.09 36.0515 19.23 35.4915 18.13C34.9515 17.03 34.6815 15.74 34.6815 14.26C34.6815 13.14 34.8415 12.13 35.1615 11.23C35.4815 10.33 35.9215 9.56 36.4815 8.92C37.0615 8.28 37.7515 7.79 38.5515 7.45C39.3715 7.09 40.2715 6.91 41.2515 6.91C42.3715 6.91 43.3715 7.17 44.2515 7.69C45.1515 8.21 45.7515 8.89 46.0515 9.73L45.7515 10.96V9.64C45.7515 8.78 45.9815 8.12 46.4415 7.66C46.9215 7.2 47.5815 6.97 48.4215 6.97C49.2615 6.97 49.9015 7.2 50.3415 7.66C50.8015 8.12 51.0315 8.78 51.0315 9.64V20.02C51.0315 22.58 50.3115 24.5 48.8715 25.78C47.4315 27.08 45.3715 27.73 42.6915 27.73ZM42.9015 17.68C43.5015 17.68 44.0115 17.55 44.4315 17.29C44.8515 17.01 45.1815 16.62 45.4215 16.12C45.6615 15.6 45.7815 14.98 45.7815 14.26C45.7815 13.18 45.5215 12.34 45.0015 11.74C44.4815 11.14 43.7815 10.84 42.9015 10.84C42.3415 10.84 41.8415 10.98 41.4015 11.26C40.9615 11.52 40.6215 11.91 40.3815 12.43C40.1615 12.93 40.0515 13.54 40.0515 14.26C40.0515 15.34 40.3115 16.18 40.8315 16.78C41.3515 17.38 42.0415 17.68 42.9015 17.68ZM61.6208 22.33C59.9808 22.33 58.5508 22.02 57.3308 21.4C56.1108 20.78 55.1608 19.89 54.4808 18.73C53.8008 17.57 53.4608 16.2 53.4608 14.62C53.4608 13.42 53.6508 12.35 54.0308 11.41C54.4108 10.45 54.9608 9.64 55.6808 8.98C56.4008 8.3 57.2608 7.79 58.2608 7.45C59.2608 7.09 60.3808 6.91 61.6208 6.91C63.2608 6.91 64.6908 7.22 65.9108 7.84C67.1308 8.46 68.0708 9.35 68.7308 10.51C69.4108 11.65 69.7508 13.02 69.7508 14.62C69.7508 15.8 69.5608 16.87 69.1808 17.83C68.8008 18.79 68.2508 19.61 67.5308 20.29C66.8308 20.95 65.9708 21.46 64.9508 21.82C63.9508 22.16 62.8408 22.33 61.6208 22.33ZM61.6208 18.4C62.1608 18.4 62.6408 18.27 63.0608 18.01C63.4808 17.73 63.8008 17.32 64.0208 16.78C64.2608 16.22 64.3808 15.5 64.3808 14.62C64.3808 13.28 64.1208 12.32 63.6008 11.74C63.0808 11.14 62.4208 10.84 61.6208 10.84C61.0808 10.84 60.6008 10.97 60.1808 11.23C59.7608 11.49 59.4308 11.9 59.1908 12.46C58.9508 13 58.8308 13.72 58.8308 14.62C58.8308 15.94 59.0908 16.9 59.6108 17.5C60.1308 18.1 60.8008 18.4 61.6208 18.4Z" fill="white"/>
</svg>
